HIERARCHY
ROOT Hips
{
	OFFSET -0.001795 -0.223333 0.028219
	CHANNELS 6 Xposition Yposition Zposition Zrotation Yrotation Xrotation 
	JOINT LeftUpLeg
	{
		OFFSET 0.069520 -0.091406 -0.006815
		CHANNELS 3 Zrotation Yrotation Xrotation
		JOINT LeftLeg
		{
			OFFSET 0.034277 -0.375199 -0.004496
			CHANNELS 3 Zrotation Yrotation Xrotation
			JOINT LeftFoot
			{
				OFFSET -0.013596 -0.397961 -0.043693
				CHANNELS 3 Zrotation Yrotation Xrotation
				JOINT LeftToe
				{
					OFFSET 0.026358 -0.055791 0.119288
					CHANNELS 3 Zrotation Yrotation Xrotation
					End Site
					{
						OFFSET 0.000000 0.000000 0.000000
					}
				}
			}
		}
	}
	JOINT RightUpLeg
	{
		OFFSET -0.067670 -0.090522 -0.004320
		CHANNELS 3 Zrotation Yrotation Xrotation
		JOINT RightLeg
		{
			OFFSET -0.038290 -0.382569 -0.008850
			CHANNELS 3 Zrotation Yrotation Xrotation
			JOINT RightFoot
			{
				OFFSET 0.015774 -0.398415 -0.042312
				CHANNELS 3 Zrotation Yrotation Xrotation
				JOINT RightToe
				{
					OFFSET -0.025372 -0.048144 0.123348
					CHANNELS 3 Zrotation Yrotation Xrotation
					End Site
					{
						OFFSET 0.000000 0.000000 0.000000
					}
				}
			}
		}
	}
	JOINT Spine
	{
		OFFSET -0.002533 0.108963 -0.026696
		CHANNELS 3 Zrotation Yrotation Xrotation
		JOINT Spine1
		{
			OFFSET 0.005487 0.135180 0.001092
			CHANNELS 3 Zrotation Yrotation Xrotation
			JOINT Spine2
			{
				OFFSET 0.001457 0.052922 0.025425
				CHANNELS 3 Zrotation Yrotation Xrotation
				JOINT Neck
				{
					OFFSET -0.002778 0.213870 -0.042857
					CHANNELS 3 Zrotation Yrotation Xrotation
					JOINT Head
					{
						OFFSET 0.005152 0.064970 0.051349
						CHANNELS 3 Zrotation Yrotation Xrotation
						End Site
						{
							OFFSET 0.000000 0.000000 0.000000
						}
					}
				}
				JOINT LeftShoulder
				{
					OFFSET 0.078845 0.121749 -0.034090
					CHANNELS 3 Zrotation Yrotation Xrotation
					JOINT LeftArm
					{
						OFFSET 0.090977 0.030469 -0.008868
						CHANNELS 3 Zrotation Yrotation Xrotation
						JOINT LeftForeArm
						{
							OFFSET 0.259612 -0.012772 -0.027456
							CHANNELS 3 Zrotation Yrotation Xrotation
							JOINT LeftHand
							{
								OFFSET 0.249234 0.008986 -0.001171
								CHANNELS 3 Zrotation Yrotation Xrotation
								End Site
								{
									OFFSET 0.000000 0.000000 0.000000
								}
							}
						}
					}
				}
				JOINT RightShoulder
				{
					OFFSET -0.081759 0.118833 -0.038615
					CHANNELS 3 Zrotation Yrotation Xrotation
					JOINT RightArm
					{
						OFFSET -0.096012 0.032551 -0.009143
						CHANNELS 3 Zrotation Yrotation Xrotation
						JOINT RightForeArm
						{
							OFFSET -0.253742 -0.013329 -0.021401
							CHANNELS 3 Zrotation Yrotation Xrotation
							JOINT RightHand
							{
								OFFSET -0.255298 0.007772 -0.005559
								CHANNELS 3 Zrotation Yrotation Xrotation
								End Site
								{
									OFFSET 0.000000 0.000000 0.000000
								}
							}
						}
					}
				}
			}
		}
	}
}
MOTION
Frames: 6
Frame Time: 0.050000
0.000000 0.939879 0.000000 -0.480275 -3.377846 8.439441 6.898051 -0.338358 -5.235060 -1.779909 0.241586 -2.231530 1.009347 5.519293 10.847182 0.000000 0.000000 0.000000 -3.795863 0.623840 -6.430988 -4.018951 -0.090206 -6.523926 -5.120282 -15.899411 19.888419 0.000000 0.000000 0.000000 5.498994 0.415791 -6.642424 -2.526553 1.146365 -4.584220 -3.424483 4.911010 3.487637 6.591367 -3.246160 -11.042824 0.000000 0.000000 0.000000 -16.718866 0.670230 -2.760109 -54.730622 -5.894586 -3.607027 -7.950276 -14.065372 1.398436 0.000000 0.000000 0.000000 13.962287 -7.376839 -4.301401 61.652355 3.318103 -3.881672 9.298835 18.769622 2.100025 0.000000 0.000000 0.000000 
0.000145 0.939192 0.000509 -0.660593 -4.406216 9.393990 6.904620 -0.332015 -5.017673 -1.678605 0.270572 -4.003014 1.490715 6.298638 11.215201 0.000000 0.000000 0.000000 -3.688334 0.730251 -7.713707 -4.052623 -0.085084 -6.385623 -4.647469 -15.312473 19.601138 0.000000 0.000000 0.000000 6.661594 0.490677 -7.160717 -3.348313 1.470529 -4.984745 -4.056726 5.929342 2.645286 7.282865 -3.623381 -11.142120 0.000000 0.000000 0.000000 -17.834743 0.968334 -3.247303 -53.725956 -5.983122 -3.357995 -7.833864 -13.344498 1.295512 0.000000 0.000000 0.000000 13.569905 -8.783471 -4.872909 62.680314 2.052993 -4.439221 9.871569 18.334700 2.139782 0.000000 0.000000 0.000000 
0.000207 0.939054 0.000769 -0.219207 -3.971573 9.199017 6.387217 -0.361837 -5.487129 -1.530903 0.235503 -2.998435 1.308027 5.984684 10.969019 0.000000 0.000000 0.000000 -3.649419 0.716173 -7.587262 -4.958337 -0.021083 -6.079533 -4.915464 -15.652010 19.528675 0.000000 0.000000 0.000000 6.295913 0.436177 -6.744731 -3.107284 1.361834 -5.843642 -4.422727 5.359288 2.624956 6.825584 -3.594743 -9.694284 0.000000 0.000000 0.000000 -17.189123 0.635196 -2.908065 -54.028337 -5.347509 -3.698223 -7.506530 -12.886504 1.222050 0.000000 0.000000 0.000000 14.692534 -7.835757 -4.594163 61.577383 1.470759 -4.744553 9.582017 18.319930 2.083850 0.000000 0.000000 0.000000 
0.000217 0.938904 0.001035 -0.181651 -3.867006 9.776463 6.850945 -0.370368 -5.779314 -2.384026 0.319228 -3.620333 1.214766 5.895934 11.217794 0.000000 0.000000 0.000000 -3.815629 0.771388 -8.325184 -4.763406 -0.010188 -5.816512 -5.031289 -15.816912 19.510188 0.000000 0.000000 0.000000 6.406894 0.457400 -7.056007 -3.421133 1.497944 -5.381283 -4.275014 4.870857 1.077932 7.003452 -3.927926 -8.428378 0.000000 0.000000 0.000000 -17.092322 1.326168 -3.193635 -54.503345 -5.777221 -3.396218 -6.555290 -11.821207 1.025042 0.000000 0.000000 0.000000 13.403135 -8.111499 -4.644317 61.828844 0.707738 -4.966707 10.882858 18.243373 2.232629 0.000000 0.000000 0.000000 
0.000141 0.939221 0.001233 0.082504 -3.354077 9.723943 6.397052 -0.395391 -5.970525 -1.974020 0.278617 -3.377738 0.952813 5.525095 11.250024 0.000000 0.000000 0.000000 -3.829982 0.759452 -8.226849 -5.189815 0.023023 -5.691796 -5.305120 -16.176447 19.672737 0.000000 0.000000 0.000000 6.024872 0.437553 -7.002918 -3.100946 1.373321 -5.308387 -4.485817 4.554151 0.973594 6.792859 -3.716600 -8.774328 0.000000 0.000000 0.000000 -16.875615 1.071682 -3.038772 -54.552693 -6.234041 -3.187628 -6.988358 -11.464923 1.035735 0.000000 0.000000 0.000000 13.144979 -8.462391 -4.774850 61.878725 0.583750 -5.013127 10.768770 17.598645 2.125288 0.000000 0.000000 0.000000 
0.000052 0.939606 0.001458 0.216737 -3.147736 9.982809 6.381955 -0.407206 -6.099915 -2.146730 0.297666 -3.722577 0.795657 5.359514 11.534636 0.000000 0.000000 0.000000 -3.950754 0.767010 -8.353475 -5.214904 0.009542 -5.875805 -5.406695 -16.322368 19.904122 0.000000 0.000000 0.000000 5.809849 0.446628 -7.220938 -3.016256 1.339290 -5.379131 -4.505020 4.487958 0.720770 6.975423 -3.896388 -8.410893 0.000000 0.000000 0.000000 -17.058820 1.362616 -3.235016 -54.508748 -6.393246 -3.080491 -6.615686 -11.061331 0.962430 0.000000 0.000000 0.000000 12.792097 -8.445799 -4.712064 62.081291 0.362315 -5.098451 10.638411 17.236829 2.055353 0.000000 0.000000 0.000000 
